<mxfile host="app.diagrams.net" agent="Mozilla/5.0 (Windows NT 10.0; Win64; x64; rv:138.0) Gecko/20100101 Firefox/138.0" version="27.0.6">
  <diagram name="Page-1" id="Pf1q6ngfQjls62erkBvs">
    <mxGraphModel dx="1665" dy="946" grid="1" gridSize="10" guides="1" tooltips="1" connect="1" arrows="1" fold="1" page="1" pageScale="1" pageWidth="850" pageHeight="1100" math="0" shadow="0">
      <root>
        <mxCell id="0" />
        <mxCell id="1" parent="0" />
        <mxCell id="onsYoh0pytFvfcH86_cc-1" value="Unitate decizionala" style="rounded=0;whiteSpace=wrap;html=1;" vertex="1" parent="1">
          <mxGeometry x="110" y="200" width="120" height="60" as="geometry" />
        </mxCell>
        <mxCell id="onsYoh0pytFvfcH86_cc-2" value="Conditii de rulare" style="rounded=0;whiteSpace=wrap;html=1;" vertex="1" parent="1">
          <mxGeometry x="130" y="310" width="120" height="60" as="geometry" />
        </mxCell>
        <mxCell id="onsYoh0pytFvfcH86_cc-3" value="Procesare de imagine" style="rounded=0;whiteSpace=wrap;html=1;" vertex="1" parent="1">
          <mxGeometry x="110" y="410" width="120" height="60" as="geometry" />
        </mxCell>
        <mxCell id="onsYoh0pytFvfcH86_cc-4" value="Detectare margini utilizand Sobel" style="rounded=0;whiteSpace=wrap;html=1;" vertex="1" parent="1">
          <mxGeometry x="110" y="500" width="120" height="60" as="geometry" />
        </mxCell>
        <mxCell id="onsYoh0pytFvfcH86_cc-5" value="Estimarea disparitatii" style="rounded=0;whiteSpace=wrap;html=1;" vertex="1" parent="1">
          <mxGeometry x="110" y="580" width="120" height="60" as="geometry" />
        </mxCell>
        <mxCell id="onsYoh0pytFvfcH86_cc-6" value="Crearea unui point cloud" style="rounded=0;whiteSpace=wrap;html=1;" vertex="1" parent="1">
          <mxGeometry x="110" y="670" width="120" height="60" as="geometry" />
        </mxCell>
        <mxCell id="onsYoh0pytFvfcH86_cc-7" value="Filtrarea si intelegerea mediului" style="rounded=0;whiteSpace=wrap;html=1;" vertex="1" parent="1">
          <mxGeometry x="250" y="670" width="120" height="60" as="geometry" />
        </mxCell>
        <mxCell id="onsYoh0pytFvfcH86_cc-8" value="Incadrarea obstacolelor intr-un grid 3D" style="rounded=0;whiteSpace=wrap;html=1;" vertex="1" parent="1">
          <mxGeometry x="390" y="670" width="120" height="60" as="geometry" />
        </mxCell>
        <mxCell id="onsYoh0pytFvfcH86_cc-9" value="Aproximarea spatiului ce poate fi parcurs" style="rounded=0;whiteSpace=wrap;html=1;" vertex="1" parent="1">
          <mxGeometry x="530" y="670" width="120" height="60" as="geometry" />
        </mxCell>
        <mxCell id="onsYoh0pytFvfcH86_cc-11" value="Primirea comenzii" style="rounded=0;whiteSpace=wrap;html=1;" vertex="1" parent="1">
          <mxGeometry x="670" y="670" width="120" height="60" as="geometry" />
        </mxCell>
      </root>
    </mxGraphModel>
  </diagram>
</mxfile>
